name Walk8.mot
datacolumns 19
datarows 10
range 2.72000000 2.72900000
endheader

                time	   L_ground_force_vx	   L_ground_force_vy	   L_ground_force_vz	   L_ground_force_px	   L_ground_force_py	   L_ground_force_pz	   R_ground_force_vx	   R_ground_force_vy	   R_ground_force_vz	   R_ground_force_px	   R_ground_force_py	   R_ground_force_pz	   L_ground_torque_x	   L_ground_torque_y	   L_ground_torque_z	   R_ground_torque_x	   R_ground_torque_y	   R_ground_torque_z	
          2.72000000	        -31.19756456	        934.15541154	        -62.58159813	          0.35708863	          0.00000000	          0.13930993	          0.00000000	          0.00000000	          0.00000000	          0.00000000	          0.00000000	          0.00000000	          0.00000000	          8.50651021	          0.00000000	          0.00000000	          0.00000000	          0.00000000	
          2.72100000	        -31.05138551	        932.15968617	        -62.61603105	          0.35749481	          0.00000000	          0.13938440	          0.00000000	          0.00000000	          0.00000000	          0.00000000	          0.00000000	          0.00000000	          0.00000000	          8.49048119	          0.00000000	          0.00000000	          0.00000000	          0.00000000	
          2.72200000	        -30.90822442	        930.28689381	        -62.63611888	          0.35791029	          0.00000000	          0.13946406	          0.00000000	          0.00000000	          0.00000000	          0.00000000	          0.00000000	          0.00000000	          0.00000000	          8.48593480	          0.00000000	          0.00000000	          0.00000000	          0.00000000	
          2.72300000	        -30.77833524	        928.56537713	        -62.62608409	          0.35835440	          0.00000000	          0.13956049	          0.00000000	          0.00000000	          0.00000000	          0.00000000	          0.00000000	          0.00000000	          0.00000000	          8.48098847	          0.00000000	          0.00000000	          0.00000000	          0.00000000	
          2.72400000	        -30.66891694	        926.96491669	        -62.57439428	          0.35883107	          0.00000000	          0.13967418	          0.00000000	          0.00000000	          0.00000000	          0.00000000	          0.00000000	          0.00000000	          0.00000000	          8.46630576	          0.00000000	          0.00000000	          0.00000000	          0.00000000	
          2.72500000	        -30.57759233	        925.43197574	        -62.48751821	          0.35932680	          0.00000000	          0.13978688	          0.00000000	          0.00000000	          0.00000000	          0.00000000	          0.00000000	          0.00000000	          0.00000000	          8.44164610	          0.00000000	          0.00000000	          0.00000000	          0.00000000	
          2.72600000	        -30.49317605	        923.93615432	        -62.38795944	          0.35982058	          0.00000000	          0.13988022	          0.00000000	          0.00000000	          0.00000000	          0.00000000	          0.00000000	          0.00000000	          0.00000000	          8.41445612	          0.00000000	          0.00000000	          0.00000000	          0.00000000	
          2.72700000	        -30.40545449	        922.49049682	        -62.29194396	          0.36030821	          0.00000000	          0.13995844	          0.00000000	          0.00000000	          0.00000000	          0.00000000	          0.00000000	          0.00000000	          0.00000000	          8.39310983	          0.00000000	          0.00000000	          0.00000000	          0.00000000	
          2.72800000	        -30.31320455	        921.10565100	        -62.19721096	          0.36080594	          0.00000000	          0.14003709	          0.00000000	          0.00000000	          0.00000000	          0.00000000	          0.00000000	          0.00000000	          0.00000000	          8.38148792	          0.00000000	          0.00000000	          0.00000000	          0.00000000	
          2.72900000	        -30.22194755	        919.75456529	        -62.09466132	          0.36132505	          0.00000000	          0.14011792	          0.00000000	          0.00000000	          0.00000000	          0.00000000	          0.00000000	          0.00000000	          0.00000000	          8.37503499	          0.00000000	          0.00000000	          0.00000000	          0.00000000	
